<svg width="133" height="45" viewBox="0 0 133 45" fill="none" xmlns="http://www.w3.org/2000/svg">
<path d="M13.696 12.696V29.176C13.696 31.0107 13.1307 32.4827 12 33.592C10.8693 34.68 9.376 35.224 7.52 35.224C5.64267 35.224 4.13867 34.6693 3.008 33.56C1.87733 32.4293 1.312 30.8933 1.312 28.952H4.224C4.24533 30.04 4.52267 30.9253 5.056 31.608C5.61067 32.2907 6.432 32.632 7.52 32.632C8.608 32.632 9.41867 32.312 9.952 31.672C10.4853 31.0107 10.752 30.1787 10.752 29.176V12.696H13.696ZM27.7207 35.288C26.0781 35.288 24.5847 34.9147 23.2407 34.168C21.9181 33.4213 20.8727 32.3653 20.1047 31C19.3581 29.6133 18.9847 28.0133 18.9847 26.2C18.9847 24.408 19.3687 22.8293 20.1367 21.464C20.9261 20.0773 21.9927 19.0213 23.3367 18.296C24.6807 17.5493 26.1847 17.176 27.8488 17.176C29.5128 17.176 31.0168 17.5493 32.3608 18.296C33.7048 19.0213 34.7608 20.0667 35.5287 21.432C36.3181 22.7973 36.7127 24.3867 36.7127 26.2C36.7127 28.0133 36.3074 29.6133 35.4967 31C34.7074 32.3653 33.6301 33.4213 32.2648 34.168C30.8994 34.9147 29.3848 35.288 27.7207 35.288ZM27.7207 32.728C28.7661 32.728 29.7474 32.4827 30.6648 31.992C31.5821 31.5013 32.3181 30.7653 32.8728 29.784C33.4487 28.8027 33.7367 27.608 33.7367 26.2C33.7367 24.792 33.4594 23.5973 32.9047 22.616C32.3501 21.6347 31.6248 20.9093 30.7288 20.44C29.8328 19.9493 28.8621 19.704 27.8167 19.704C26.7501 19.704 25.7688 19.9493 24.8727 20.44C23.9981 20.9093 23.2941 21.6347 22.7607 22.616C22.2274 23.5973 21.9607 24.792 21.9607 26.2C21.9607 27.6293 22.2167 28.8347 22.7287 29.816C23.2621 30.7973 23.9661 31.5333 24.8407 32.024C25.7154 32.4933 26.6754 32.728 27.7207 32.728ZM47.3895 35.288C46.0455 35.288 44.8402 35.064 43.7735 34.616C42.7068 34.1467 41.8642 33.5067 41.2455 32.696C40.6268 31.864 40.2855 30.9147 40.2215 29.848H43.2295C43.3148 30.7227 43.7202 31.4373 44.4455 31.992C45.1922 32.5467 46.1628 32.824 47.3575 32.824C48.4668 32.824 49.3415 32.5787 49.9815 32.088C50.6215 31.5973 50.9415 30.9787 50.9415 30.232C50.9415 29.464 50.6002 28.8987 49.9175 28.536C49.2348 28.152 48.1788 27.7787 46.7495 27.416C45.4482 27.0747 44.3815 26.7333 43.5495 26.392C42.7388 26.0293 42.0348 25.5067 41.4375 24.824C40.8615 24.12 40.5735 23.2027 40.5735 22.072C40.5735 21.176 40.8402 20.3547 41.3735 19.608C41.9068 18.8613 42.6642 18.2747 43.6455 17.848C44.6268 17.4 45.7468 17.176 47.0055 17.176C48.9468 17.176 50.5148 17.6667 51.7095 18.648C52.9042 19.6293 53.5442 20.9733 53.6295 22.68H50.7175C50.6535 21.7627 50.2802 21.0267 49.5975 20.472C48.9362 19.9173 48.0402 19.64 46.9095 19.64C45.8642 19.64 45.0322 19.864 44.4135 20.312C43.7948 20.76 43.4855 21.3467 43.4855 22.072C43.4855 22.648 43.6668 23.128 44.0295 23.512C44.4135 23.8747 44.8828 24.1733 45.4375 24.408C46.0135 24.6213 46.8028 24.8667 47.8055 25.144C49.0642 25.4853 50.0882 25.8267 50.8775 26.168C51.6668 26.488 52.3388 26.9787 52.8935 27.64C53.4695 28.3013 53.7682 29.1653 53.7895 30.232C53.7895 31.192 53.5228 32.056 52.9895 32.824C52.4562 33.592 51.6988 34.2 50.7175 34.648C49.7575 35.0747 48.6482 35.288 47.3895 35.288ZM74.5402 25.56C74.5402 26.1147 74.5082 26.7013 74.4442 27.32H60.4282C60.5349 29.048 61.1216 30.4027 62.1882 31.384C63.2762 32.344 64.5882 32.824 66.1242 32.824C67.3829 32.824 68.4282 32.536 69.2602 31.96C70.1136 31.3627 70.7109 30.5733 71.0522 29.592H74.1882C73.7189 31.2773 72.7802 32.6533 71.3722 33.72C69.9642 34.7653 68.2149 35.288 66.1242 35.288C64.4602 35.288 62.9669 34.9147 61.6442 34.168C60.3429 33.4213 59.3189 32.3653 58.5722 31C57.8256 29.6133 57.4522 28.0133 57.4522 26.2C57.4522 24.3867 57.8149 22.7973 58.5402 21.432C59.2656 20.0667 60.2789 19.0213 61.5802 18.296C62.9029 17.5493 64.4176 17.176 66.1242 17.176C67.7882 17.176 69.2602 17.5387 70.5402 18.264C71.8202 18.9893 72.8016 19.992 73.4842 21.272C74.1882 22.5307 74.5402 23.96 74.5402 25.56ZM71.5322 24.952C71.5322 23.8427 71.2869 22.8933 70.7962 22.104C70.3056 21.2933 69.6336 20.6853 68.7802 20.28C67.9482 19.8533 67.0202 19.64 65.9962 19.64C64.5242 19.64 63.2656 20.1093 62.2202 21.048C61.1962 21.9867 60.6096 23.288 60.4602 24.952H71.5322ZM81.936 20.696C82.512 19.6933 83.3653 18.8613 84.496 18.2C85.648 17.5173 86.9813 17.176 88.496 17.176C90.0533 17.176 91.4613 17.5493 92.72 18.296C94 19.0427 95.0027 20.0987 95.728 21.464C96.4533 22.808 96.816 24.376 96.816 26.168C96.816 27.9387 96.4533 29.5173 95.728 30.904C95.0027 32.2907 94 33.368 92.72 34.136C91.4613 34.904 90.0533 35.288 88.496 35.288C87.0027 35.288 85.68 34.9573 84.528 34.296C83.3973 33.6133 82.5333 32.7707 81.936 31.768V43.32H79.024V17.464H81.936V20.696ZM93.84 26.168C93.84 24.8453 93.5733 23.6933 93.04 22.712C92.5067 21.7307 91.7813 20.984 90.864 20.472C89.968 19.96 88.976 19.704 87.888 19.704C86.8213 19.704 85.8293 19.9707 84.912 20.504C84.016 21.016 83.2907 21.7733 82.736 22.776C82.2027 23.7573 81.936 24.8987 81.936 26.2C81.936 27.5227 82.2027 28.6853 82.736 29.688C83.2907 30.6693 84.016 31.4267 84.912 31.96C85.8293 32.472 86.8213 32.728 87.888 32.728C88.976 32.728 89.968 32.472 90.864 31.96C91.7813 31.4267 92.5067 30.6693 93.04 29.688C93.5733 28.6853 93.84 27.512 93.84 26.168ZM109.993 17.144C111.316 17.144 112.51 17.432 113.577 18.008C114.644 18.5627 115.476 19.4053 116.073 20.536C116.692 21.6667 117.001 23.0427 117.001 24.664V35H114.121V25.08C114.121 23.3307 113.684 21.9973 112.809 21.08C111.934 20.1413 110.74 19.672 109.225 19.672C107.689 19.672 106.462 20.152 105.545 21.112C104.649 22.072 104.201 23.4693 104.201 25.304V35H101.289V11.32H104.201V19.96C104.777 19.064 105.566 18.3707 106.569 17.88C107.593 17.3893 108.734 17.144 109.993 17.144Z" fill="black"/>
<circle cx="129.5" cy="31.5" r="3.5" fill="#000AFF"/>
</svg>
