<svg width="252" height="23" viewBox="0 0 252 23" fill="none" xmlns="http://www.w3.org/2000/svg">
<path d="M60.9674 6.832V14.672C60.9674 15.76 60.6527 16.608 60.0234 17.216C59.394 17.8133 58.5514 18.112 57.4954 18.112C56.4287 18.112 55.5647 17.8027 54.9034 17.184C54.2527 16.5653 53.9274 15.7013 53.9274 14.592H56.1674C56.178 15.072 56.29 15.4453 56.5034 15.712C56.7274 15.9787 57.0474 16.112 57.4634 16.112C57.8687 16.112 58.178 15.984 58.3914 15.728C58.6047 15.472 58.7114 15.12 58.7114 14.672V6.832H60.9674ZM67.8364 18.144C66.983 18.144 66.215 17.9573 65.5324 17.584C64.8497 17.2 64.311 16.6613 63.9164 15.968C63.5324 15.2747 63.3404 14.4747 63.3404 13.568C63.3404 12.6613 63.5377 11.8613 63.9324 11.168C64.3377 10.4747 64.887 9.94133 65.5804 9.568C66.2737 9.184 67.047 8.992 67.9004 8.992C68.7537 8.992 69.527 9.184 70.2204 9.568C70.9137 9.94133 71.4577 10.4747 71.8524 11.168C72.2577 11.8613 72.4604 12.6613 72.4604 13.568C72.4604 14.4747 72.2524 15.2747 71.8364 15.968C71.431 16.6613 70.8764 17.2 70.1724 17.584C69.479 17.9573 68.7004 18.144 67.8364 18.144ZM67.8364 16.192C68.2417 16.192 68.6204 16.096 68.9724 15.904C69.335 15.7013 69.623 15.4027 69.8364 15.008C70.0497 14.6133 70.1564 14.1333 70.1564 13.568C70.1564 12.7253 69.9324 12.08 69.4844 11.632C69.047 11.1733 68.5084 10.944 67.8684 10.944C67.2284 10.944 66.6897 11.1733 66.2524 11.632C65.8257 12.08 65.6124 12.7253 65.6124 13.568C65.6124 14.4107 65.8204 15.0613 66.2364 15.52C66.663 15.968 67.1964 16.192 67.8364 16.192ZM77.8155 18.144C77.0902 18.144 76.4395 18.016 75.8635 17.76C75.2875 17.4933 74.8288 17.136 74.4875 16.688C74.1568 16.24 73.9755 15.744 73.9435 15.2H76.1995C76.2422 15.5413 76.4075 15.824 76.6955 16.048C76.9942 16.272 77.3622 16.384 77.7995 16.384C78.2262 16.384 78.5568 16.2987 78.7915 16.128C79.0368 15.9573 79.1595 15.7387 79.1595 15.472C79.1595 15.184 79.0102 14.9707 78.7115 14.832C78.4235 14.6827 77.9595 14.5227 77.3195 14.352C76.6582 14.192 76.1142 14.0267 75.6875 13.856C75.2715 13.6853 74.9088 13.424 74.5995 13.072C74.3008 12.72 74.1515 12.2453 74.1515 11.648C74.1515 11.1573 74.2902 10.7093 74.5675 10.304C74.8555 9.89867 75.2608 9.57867 75.7835 9.344C76.3168 9.10933 76.9408 8.992 77.6555 8.992C78.7115 8.992 79.5542 9.25867 80.1835 9.792C80.8128 10.3147 81.1595 11.024 81.2235 11.92H79.0795C79.0475 11.568 78.8982 11.2907 78.6315 11.088C78.3755 10.8747 78.0288 10.768 77.5915 10.768C77.1862 10.768 76.8715 10.8427 76.6475 10.992C76.4342 11.1413 76.3275 11.3493 76.3275 11.616C76.3275 11.9147 76.4768 12.144 76.7755 12.304C77.0742 12.4533 77.5382 12.608 78.1675 12.768C78.8075 12.928 79.3355 13.0933 79.7515 13.264C80.1675 13.4347 80.5248 13.7013 80.8235 14.064C81.1328 14.416 81.2928 14.8853 81.3035 15.472C81.3035 15.984 81.1595 16.4427 80.8715 16.848C80.5942 17.2533 80.1888 17.5733 79.6555 17.808C79.1328 18.032 78.5195 18.144 77.8155 18.144ZM91.7023 13.376C91.7023 13.696 91.6809 13.984 91.6383 14.24H85.1583C85.2116 14.88 85.4356 15.3813 85.8303 15.744C86.2249 16.1067 86.7103 16.288 87.2863 16.288C88.1183 16.288 88.7103 15.9307 89.0623 15.216H91.4783C91.2223 16.0693 90.7316 16.7733 90.0063 17.328C89.2809 17.872 88.3903 18.144 87.3343 18.144C86.4809 18.144 85.7129 17.9573 85.0303 17.584C84.3583 17.2 83.8303 16.6613 83.4463 15.968C83.0729 15.2747 82.8863 14.4747 82.8863 13.568C82.8863 12.6507 83.0729 11.8453 83.4463 11.152C83.8196 10.4587 84.3423 9.92533 85.0143 9.552C85.6863 9.17867 86.4596 8.992 87.3343 8.992C88.1769 8.992 88.9289 9.17333 89.5903 9.536C90.2623 9.89867 90.7796 10.416 91.1423 11.088C91.5156 11.7493 91.7023 12.512 91.7023 13.376ZM89.3823 12.736C89.3716 12.16 89.1636 11.7013 88.7583 11.36C88.3529 11.008 87.8569 10.832 87.2703 10.832C86.7156 10.832 86.2463 11.0027 85.8623 11.344C85.4889 11.6747 85.2596 12.1387 85.1743 12.736H89.3823ZM95.8973 10.416C96.1853 10.0107 96.5799 9.67467 97.0813 9.408C97.5933 9.13067 98.1746 8.992 98.8253 8.992C99.5826 8.992 100.265 9.17867 100.873 9.552C101.492 9.92533 101.977 10.4587 102.329 11.152C102.692 11.8347 102.873 12.6293 102.873 13.536C102.873 14.4427 102.692 15.248 102.329 15.952C101.977 16.6453 101.492 17.184 100.873 17.568C100.265 17.952 99.5826 18.144 98.8253 18.144C98.1746 18.144 97.5986 18.0107 97.0973 17.744C96.6066 17.4773 96.2066 17.1413 95.8973 16.736V22.224H93.6573V9.136H95.8973V10.416ZM100.585 13.536C100.585 13.0027 100.473 12.544 100.249 12.16C100.036 11.7653 99.7479 11.4667 99.3853 11.264C99.0333 11.0613 98.6493 10.96 98.2333 10.96C97.8279 10.96 97.4439 11.0667 97.0813 11.28C96.7293 11.4827 96.4413 11.7813 96.2173 12.176C96.0039 12.5707 95.8973 13.0347 95.8973 13.568C95.8973 14.1013 96.0039 14.5653 96.2173 14.96C96.4413 15.3547 96.7293 15.6587 97.0813 15.872C97.4439 16.0747 97.8279 16.176 98.2333 16.176C98.6493 16.176 99.0333 16.0693 99.3853 15.856C99.7479 15.6427 100.036 15.3387 100.249 14.944C100.473 14.5493 100.585 14.08 100.585 13.536ZM109.813 9.008C110.485 9.008 111.082 9.15733 111.605 9.456C112.128 9.744 112.533 10.176 112.821 10.752C113.12 11.3173 113.269 12 113.269 12.8V18H111.029V13.104C111.029 12.4 110.853 11.8613 110.501 11.488C110.149 11.104 109.669 10.912 109.061 10.912C108.442 10.912 107.952 11.104 107.589 11.488C107.237 11.8613 107.061 12.4 107.061 13.104V18H104.821V6.16H107.061V10.24C107.349 9.856 107.733 9.55733 108.213 9.344C108.693 9.12 109.226 9.008 109.813 9.008ZM125.036 18.112C123.99 18.112 123.03 17.8667 122.156 17.376C121.281 16.8853 120.588 16.208 120.076 15.344C119.564 14.4693 119.308 13.4827 119.308 12.384C119.308 11.296 119.564 10.32 120.076 9.456C120.588 8.58133 121.281 7.89867 122.156 7.408C123.03 6.91733 123.99 6.672 125.036 6.672C126.092 6.672 127.052 6.91733 127.916 7.408C128.79 7.89867 129.478 8.58133 129.98 9.456C130.492 10.32 130.748 11.296 130.748 12.384C130.748 13.4827 130.492 14.4693 129.98 15.344C129.478 16.208 128.79 16.8853 127.916 17.376C127.041 17.8667 126.081 18.112 125.036 18.112ZM125.036 16.112C125.708 16.112 126.3 15.9627 126.812 15.664C127.324 15.3547 127.724 14.9173 128.012 14.352C128.3 13.7867 128.444 13.1307 128.444 12.384C128.444 11.6373 128.3 10.9867 128.012 10.432C127.724 9.86667 127.324 9.43467 126.812 9.136C126.3 8.83733 125.708 8.688 125.036 8.688C124.364 8.688 123.766 8.83733 123.244 9.136C122.732 9.43467 122.332 9.86667 122.044 10.432C121.756 10.9867 121.612 11.6373 121.612 12.384C121.612 13.1307 121.756 13.7867 122.044 14.352C122.332 14.9173 122.732 15.3547 123.244 15.664C123.766 15.9627 124.364 16.112 125.036 16.112ZM134.974 10.512C135.262 10.0427 135.635 9.67467 136.094 9.408C136.563 9.14133 137.097 9.008 137.694 9.008V11.36H137.102C136.398 11.36 135.865 11.5253 135.502 11.856C135.15 12.1867 134.974 12.7627 134.974 13.584V18H132.734V9.136H134.974V10.512ZM140.659 8.08C140.264 8.08 139.934 7.95733 139.667 7.712C139.411 7.456 139.283 7.14133 139.283 6.768C139.283 6.39467 139.411 6.08533 139.667 5.84C139.934 5.584 140.264 5.456 140.659 5.456C141.054 5.456 141.379 5.584 141.635 5.84C141.902 6.08533 142.035 6.39467 142.035 6.768C142.035 7.14133 141.902 7.456 141.635 7.712C141.379 7.95733 141.054 8.08 140.659 8.08ZM141.763 9.136V18H139.523V9.136H141.763ZM146.904 10.976V15.264C146.904 15.5627 146.973 15.7813 147.112 15.92C147.261 16.048 147.507 16.112 147.848 16.112H148.888V18H147.48C145.592 18 144.648 17.0827 144.648 15.248V10.976H143.592V9.136H144.648V6.944H146.904V9.136H148.888V10.976H146.904ZM154.211 18.144C153.486 18.144 152.835 18.016 152.259 17.76C151.683 17.4933 151.224 17.136 150.883 16.688C150.552 16.24 150.371 15.744 150.339 15.2H152.595C152.638 15.5413 152.803 15.824 153.091 16.048C153.39 16.272 153.758 16.384 154.195 16.384C154.622 16.384 154.952 16.2987 155.187 16.128C155.432 15.9573 155.555 15.7387 155.555 15.472C155.555 15.184 155.406 14.9707 155.107 14.832C154.819 14.6827 154.355 14.5227 153.715 14.352C153.054 14.192 152.51 14.0267 152.083 13.856C151.667 13.6853 151.304 13.424 150.995 13.072C150.696 12.72 150.547 12.2453 150.547 11.648C150.547 11.1573 150.686 10.7093 150.963 10.304C151.251 9.89867 151.656 9.57867 152.179 9.344C152.712 9.10933 153.336 8.992 154.051 8.992C155.107 8.992 155.95 9.25867 156.579 9.792C157.208 10.3147 157.555 11.024 157.619 11.92H155.475C155.443 11.568 155.294 11.2907 155.027 11.088C154.771 10.8747 154.424 10.768 153.987 10.768C153.582 10.768 153.267 10.8427 153.043 10.992C152.83 11.1413 152.723 11.3493 152.723 11.616C152.723 11.9147 152.872 12.144 153.171 12.304C153.47 12.4533 153.934 12.608 154.563 12.768C155.203 12.928 155.731 13.0933 156.147 13.264C156.563 13.4347 156.92 13.7013 157.219 14.064C157.528 14.416 157.688 14.8853 157.699 15.472C157.699 15.984 157.555 16.4427 157.267 16.848C156.99 17.2533 156.584 17.5733 156.051 17.808C155.528 18.032 154.915 18.144 154.211 18.144ZM168.098 13.376C168.098 13.696 168.077 13.984 168.034 14.24H161.554C161.607 14.88 161.831 15.3813 162.226 15.744C162.621 16.1067 163.106 16.288 163.682 16.288C164.514 16.288 165.106 15.9307 165.458 15.216H167.874C167.618 16.0693 167.127 16.7733 166.402 17.328C165.677 17.872 164.786 18.144 163.73 18.144C162.877 18.144 162.109 17.9573 161.426 17.584C160.754 17.2 160.226 16.6613 159.842 15.968C159.469 15.2747 159.282 14.4747 159.282 13.568C159.282 12.6507 159.469 11.8453 159.842 11.152C160.215 10.4587 160.738 9.92533 161.41 9.552C162.082 9.17867 162.855 8.992 163.73 8.992C164.573 8.992 165.325 9.17333 165.986 9.536C166.658 9.89867 167.175 10.416 167.538 11.088C167.911 11.7493 168.098 12.512 168.098 13.376ZM165.778 12.736C165.767 12.16 165.559 11.7013 165.154 11.36C164.749 11.008 164.253 10.832 163.666 10.832C163.111 10.832 162.642 11.0027 162.258 11.344C161.885 11.6747 161.655 12.1387 161.57 12.736H165.778ZM182.341 9.136L179.749 18H177.333L175.717 11.808L174.101 18H171.669L169.061 9.136H171.333L172.901 15.888L174.597 9.136H176.965L178.629 15.872L180.197 9.136H182.341ZM192.113 13.376C192.113 13.696 192.092 13.984 192.049 14.24H185.569C185.622 14.88 185.846 15.3813 186.241 15.744C186.636 16.1067 187.121 16.288 187.697 16.288C188.529 16.288 189.121 15.9307 189.473 15.216H191.889C191.633 16.0693 191.142 16.7733 190.417 17.328C189.692 17.872 188.801 18.144 187.745 18.144C186.892 18.144 186.124 17.9573 185.441 17.584C184.769 17.2 184.241 16.6613 183.857 15.968C183.484 15.2747 183.297 14.4747 183.297 13.568C183.297 12.6507 183.484 11.8453 183.857 11.152C184.23 10.4587 184.753 9.92533 185.425 9.552C186.097 9.17867 186.87 8.992 187.745 8.992C188.588 8.992 189.34 9.17333 190.001 9.536C190.673 9.89867 191.19 10.416 191.553 11.088C191.926 11.7493 192.113 12.512 192.113 13.376ZM189.793 12.736C189.782 12.16 189.574 11.7013 189.169 11.36C188.764 11.008 188.268 10.832 187.681 10.832C187.126 10.832 186.657 11.0027 186.273 11.344C185.9 11.6747 185.67 12.1387 185.585 12.736H189.793ZM202.548 9.136L197.06 22.192H194.676L196.596 17.776L193.044 9.136H195.556L197.844 15.328L200.164 9.136H202.548ZM205.211 8.08C204.817 8.08 204.486 7.95733 204.219 7.712C203.963 7.456 203.835 7.14133 203.835 6.768C203.835 6.39467 203.963 6.08533 204.219 5.84C204.486 5.584 204.817 5.456 205.211 5.456C205.606 5.456 205.931 5.584 206.187 5.84C206.454 6.08533 206.587 6.39467 206.587 6.768C206.587 7.14133 206.454 7.456 206.187 7.712C205.931 7.95733 205.606 8.08 205.211 8.08ZM206.315 9.136V18H204.075V9.136H206.315ZM213.761 9.008C214.817 9.008 215.67 9.344 216.321 10.016C216.971 10.6773 217.297 11.6053 217.297 12.8V18H215.057V13.104C215.057 12.4 214.881 11.8613 214.529 11.488C214.177 11.104 213.697 10.912 213.089 10.912C212.47 10.912 211.979 11.104 211.617 11.488C211.265 11.8613 211.089 12.4 211.089 13.104V18H208.849V9.136H211.089V10.24C211.387 9.856 211.766 9.55733 212.225 9.344C212.694 9.12 213.206 9.008 213.761 9.008ZM230.755 9.008C231.843 9.008 232.717 9.344 233.379 10.016C234.051 10.6773 234.387 11.6053 234.387 12.8V18H232.147V13.104C232.147 12.4107 231.971 11.8827 231.619 11.52C231.267 11.1467 230.787 10.96 230.179 10.96C229.571 10.96 229.085 11.1467 228.723 11.52C228.371 11.8827 228.195 12.4107 228.195 13.104V18H225.955V13.104C225.955 12.4107 225.779 11.8827 225.427 11.52C225.075 11.1467 224.595 10.96 223.987 10.96C223.368 10.96 222.877 11.1467 222.515 11.52C222.163 11.8827 221.987 12.4107 221.987 13.104V18H219.747V9.136H221.987V10.208C222.275 9.83467 222.643 9.54133 223.091 9.328C223.549 9.11467 224.051 9.008 224.595 9.008C225.288 9.008 225.907 9.15733 226.451 9.456C226.995 9.744 227.416 10.16 227.715 10.704C228.003 10.192 228.419 9.78133 228.963 9.472C229.517 9.16267 230.115 9.008 230.755 9.008ZM237.968 8.08C237.574 8.08 237.243 7.95733 236.976 7.712C236.72 7.456 236.592 7.14133 236.592 6.768C236.592 6.39467 236.72 6.08533 236.976 5.84C237.243 5.584 237.574 5.456 237.968 5.456C238.363 5.456 238.688 5.584 238.944 5.84C239.211 6.08533 239.344 6.39467 239.344 6.768C239.344 7.14133 239.211 7.456 238.944 7.712C238.688 7.95733 238.363 8.08 237.968 8.08ZM239.072 9.136V18H236.832V9.136H239.072Z" fill="#000AFF"/>
<line y1="12.5" x2="43.9379" y2="12.5" stroke="#000AFF"/>
</svg>
